<svg width="32" height="32" viewBox="0 0 32 32" fill="none" xmlns="http://www.w3.org/2000/svg">
  <!-- Polaroid frame -->
  <rect x="4" y="2" width="24" height="28" rx="2" fill="#FAF6F1" stroke="#C2410C" stroke-width="1.5"/>

  <!-- Inner photo area with gradient -->
  <defs>
    <linearGradient id="memoryGrad" x1="6" y1="4" x2="26" y2="22" gradientUnits="userSpaceOnUse">
      <stop offset="0%" stop-color="#F0E6D8"/>
      <stop offset="100%" stop-color="#E5D9C8"/>
    </linearGradient>
  </defs>
  <rect x="6" y="4" width="20" height="18" rx="1" fill="url(#memoryGrad)"/>

  <!-- Abstract memory scene - sunset/figure silhouette -->
  <rect x="6" y="14" width="20" height="8" rx="0" fill="#C2410C" fill-opacity="0.2"/>
  <circle cx="22" cy="8" r="3" fill="#CA8A04" fill-opacity="0.5"/>

  <!-- 4-point anime sparkle star -->
  <path d="M14 8L14.75 11.25L18 12L14.75 12.75L14 16L13.25 12.75L10 12L13.25 11.25L14 8Z" fill="#CA8A04"/>

  <!-- Small accent sparkle -->
  <path d="M22 14L22.4 15.6L24 16L22.4 16.4L22 18L21.6 16.4L20 16L21.6 15.6L22 14Z" fill="#C2410C" fill-opacity="0.7"/>
</svg>
